<svg xmlns="http://www.w3.org/2000/svg" width="90" height="81"><g fill="#FFF" fill-rule="evenodd"><path d="M46.773 37.63c-2.39 0-3.87 2.283-3.87 6.066 0 3.697 1.457 5.936 3.914 5.936 2.391 0 3.892-2.327 3.892-5.98 0-3.695-1.522-6.022-3.936-6.022m17.845 5.952c0-3.834-1.537-6.085-4.125-6.085 0 0-.495.032-.738.072-.939.153-1.22.406-1.22 1.562v9.121c0 1.244.774 1.319 1.869 1.38 2.667.149 4.214-2.22 4.214-6.05M33.817 57.75c-.06-.123-.206-.128-.26.005-.062.152-.59 1.215-.626 1.29-.059.126.004.21.127.21h1.265c.091 0 .185-.084.13-.19-.034-.067-.57-1.176-.636-1.314M32.5 37.63c-2.392 0-3.87 2.283-3.87 6.066 0 3.697 1.456 5.936 3.913 5.936 2.392 0 3.892-2.327 3.892-5.98 0-3.695-1.522-6.022-3.936-6.022m10.184 19.176h-1.61c-.167 0-.342.059-.342.267v1.174c0 .183.175.29.341.29h1.61c.542 0 .983-.282.983-.865s-.441-.866-.982-.866"/><path d="M79.632 33.03c-.09.398-.336.544-.775.544l-.557.004h-8.537c-.732 0-.98-.147-.98-.632 0-.32.248-.585.54-.585h.44c.153 0 .304-.133.35-.28.067-.176.086-.284.086-.872v-9.733c0-.564-.02-.676-.087-.852-.045-.192-.22-.325-.349-.325h-.44c-.292 0-.56-.283-.56-.607 0-.481.268-.637 1-.637h8.69c.44 0 .687.146.775.545l.308 1.512c.117.559-.08.86-.476.86-.212 0-.414-.055-.56-.34a3.15 3.15 0 01-.216-.468c-.212-.559-.651-.629-1.664-.629h-2.05c-1.189 0-1.321.158-1.321 1.312v2.586c0 .488.068.7.2.788.1.068.26.084.885.084h1.012c.913 0 1.044-.066 1.11-.501l.016-.135c.066-.37.263-.544.589-.544.456 0 .609.26.609 1.023v1.828c0 .762-.153 1.023-.61 1.023-.325 0-.522-.195-.588-.565l-.023-.144c-.065-.435-.195-.5-1.11-.5h-1.005c-.625 0-.785.015-.885.083-.132.089-.2.3-.2.788v2.76c0 1.152.068 1.395.412 1.528.28.104.582.152 1.295.152l2.165-.007c.777 0 1.326-.242 1.594-.808.123-.256.162-.354.187-.396.146-.285.377-.412.59-.412.395 0 .59.302.474.86l-.334 1.691zm-6.227 18.176c-.803 0-1.665-.113-2.284-.31-.314-.082-.35-.105-.473-.105-.183 0-.275.043-.464.214-.204.157-.312.2-.504.2-.365 0-.544-.2-.673-.72l-.548-2.177a1.764 1.764 0 01-.057-.435.676.676 0 011.233-.389l.313.432c.755 1.064 1.973 1.721 3.217 1.721 1.412 0 2.377-.789 2.377-1.94 0-.59-.245-1.11-.708-1.634-.472-.52-1.057-1-2.308-1.868-2.061-1.445-2.254-1.574-2.93-2.353-.55-.637-.829-1.417-.829-2.286 0-2.109 1.606-3.505 4.002-3.505a8.9 8.9 0 011.876.196c.069.024.245.064.553.132.1.02.211.043.296.043.145 0 .312-.07.5-.195.216-.157.284-.176.46-.176.32 0 .524.22.613.607l.52 2.354c.04.104.04.235.04.304 0 .284-.256.52-.628.52-.232 0-.376-.088-.577-.368-.488-.74-.58-.824-1.036-1.177a3.38 3.38 0 00-2.046-.7c-1.004 0-1.655.573-1.655 1.465 0 .32.055.653.236.892.22.329.568.673 1 1.001.268.192.613.44 1.076.765 1.717 1.195 2.281 1.632 2.981 2.349.737.76 1.178 1.848 1.178 2.965 0 2.517-1.878 4.178-4.75 4.178zm-5.494 5.608h-1.268c-.175 0-.3.059-.3.267l.009 3.79c0 .266-.19.297-.487.297-.29 0-.48-.029-.48-.29v-3.791c0-.185-.067-.273-.299-.273h-1.28c-.208 0-.267-.2-.267-.366 0-.183-.016-.54.259-.54h4.092c.183 0 .307.102.307.44 0 .3-.078.466-.286.466zm-10.523 1.174h1.807c.217 0 .275.188.275.465 0 .24-.053.451-.254.451h-1.803c-.144 0-.275.101-.275.267v.768c0 .183.1.272.25.272h3.1c.204 0 .276.134.276.473 0 .243-.055.443-.274.443h-3.992c-.232 0-.326-.11-.326-.383v-4.497c0-.205.083-.349.321-.349h4.005c.238 0 .282.158.282.444 0 .264-.036.472-.296.472h-3.13c-.126 0-.216.1-.216.233v.708c0 .15.109.233.25.233zm-3.29-7.782c0-.329.217-.605.517-.605h.444c.149 0 .297-.118.369-.285.043-.156.068-.288.068-.857v-9.69c0-.567-.025-.7-.068-.856-.072-.167-.22-.285-.369-.285h-.444c-.3 0-.517-.276-.517-.605 0-.475.326-.542.961-.635.636-.093 2.411-.336 5.125-.336 2.713 0 4.398.589 5.73 1.937 1.282 1.284 1.977 3.265 1.977 5.617 0 2.634-.888 4.81-2.505 6.094-1.252 1.016-2.828 1.477-5.202 1.477-2.714 0-4.49-.243-5.125-.336-.635-.093-.96-.16-.96-.635zm-7.347.991c-3.51 0-6.023-1.982-6.83-5.178a.237.237 0 01-.024-.069c-.07-.36-.393-.385-.471-.004-.003.013-.01.027-.015.04-.817 3.24-3.343 5.211-6.933 5.211-4.305 0-7.11-2.979-7.11-7.522 0-4.653 2.783-7.61 7.153-7.61 3.588 0 6.137 1.999 6.92 5.262.081.372.4.345.469-.012l.005-.014c.798-3.26 3.31-5.236 6.88-5.236 4.348 0 7.174 2.935 7.174 7.5 0 4.653-2.804 7.632-7.218 7.632zm6.025 9.971c-.441 0-.561-.069-.674-.204l-1.673-1.787c-.228-.199-.456-.229-.77-.229-.174 0-.311.18-.311.389v1.523c0 .29-.249.307-.52.307-.287 0-.437-.079-.437-.312v-4.648c0-.274.172-.32.51-.32.266 0 .447.06.447.312v1.404c0 .226.102.335.243.335.408 0 .496-.086.648-.216.168-.146 1.888-1.723 1.888-1.723.213-.185.43-.18.64.019.17.163.248.348.056.538-.132.13-1.642 1.496-1.642 1.496-.186.161-.139.313-.012.453 0 0 1.81 1.995 2 2.201.285.31.023.462-.393.462zm-9.2-1.685c.042.06.776 1.124.882 1.283.162.241.017.4-.482.4-.282 0-.468-.05-.59-.229l-.812-1.259a.469.469 0 00-.408-.233h-1.16c-.142 0-.275.118-.275.258l.008 1.258c0 .25-.483.208-.641.208-.209 0-.324-.058-.324-.291l.008-4.787c0-.126.107-.2.224-.2h2.752c1.066 0 1.865.682 1.865 1.781 0 .949-.684 1.258-.958 1.493-.138.118-.17.2-.089.318zm-7.74 1.686c-.158 0-.4-.025-.474-.2l-.34-.7a.278.278 0 00-.242-.166h-2.156c-.137 0-.26.103-.336.293l-.302.573c-.067.167-.391.192-.541.192-.133 0-.573-.014-.434-.307l2.288-4.75c.065-.14.185-.246.4-.246.216 0 .335.074.405.226 0 0 2.188 4.661 2.25 4.798.112.244-.36.287-.518.287zm-8.29 0c-.133 0-.382-.075-.382-.25l-.369-2.79c-.023-.115-.068-.167-.16-.167-.074 0-.111.036-.164.1l-1.253 1.606c-.064.087-.15.141-.25.141-.141 0-.203-.038-.285-.158l-1.156-1.556a.192.192 0 00-.165-.081c-.092 0-.14.08-.151.19l-.361 2.699c-.035.222-.308.266-.533.266-.159 0-.425-.075-.425-.275l.531-4.55c.057-.273.116-.429.508-.429.1 0 .262.028.386.224l1.435 2.016c.075.11.165.2.259.199.094-.003.193-.1.274-.207l1.513-2.056c.091-.143.233-.2.4-.2.183 0 .315.04.39.344l.533 4.668c.024.265-.392.266-.575.266zm-9.018-12.664c0 .588 0 .692.052.847a.552.552 0 00.464.285h.492c.34 0 .576.28.576.609 0 .48-.267.632-1.068.632h-4.006c-.744 0-1.005-.152-1.005-.632 0-.329.261-.609.56-.609h.445c.149 0 .296-.112.368-.285.044-.155.069-.259.069-.847v-9.732c0-.565-.02-.677-.088-.852-.045-.193-.22-.325-.35-.325H14.6c-.293 0-.56-.283-.56-.608 0-.48.267-.637.999-.637h9.436c.44 0 .687.146.775.545l.307 1.513c.118.558-.08.86-.475.86-.212 0-.414-.055-.56-.34a3.14 3.14 0 01-.215-.468c-.213-.559-.652-.629-1.665-.629h-2.796c-1.189 0-1.32.157-1.32 1.312v2.586c0 .488.068.699.2.787.1.07.26.085.884.085h1.8c.915 0 1.045-.066 1.111-.501l.017-.136c.065-.37.26-.544.587-.544.457 0 .61.261.61 1.023v1.83c0 .76-.153 1.022-.61 1.022-.326 0-.522-.196-.587-.565l-.024-.145c-.065-.435-.196-.5-1.11-.5H19.61c-.624 0-.785.015-.885.084-.131.088-.2.3-.2.788l.004 3.547zM11.363 21.34c-.324-.893-.428-1-1.124-1.153-.465-.084-.61-.236-.61-.588 0-.368.233-.564.733-.564h4.494c.497 0 .716.196.716.589 0 .367-.22.515-.784.563-.48.044-.675.197-.675.544 0 .148.02.305.079.485l.172.497s2.403 6.805 2.783 7.9c.062.175.26.168.329-.028.42-1.213 1.57-4.549 1.612-4.686.118-.384.168-.79.03-1.233-.049-.156-.784-2.326-.784-2.326-.083-.236-.132-.408-.18-.5-.127-.316-.305-.433-.809-.565-.446-.111-.62-.26-.62-.583 0-.418.252-.657.76-.657h4.27c.497 0 .738.196.738.589 0 .344-.221.515-.706.583-.58.068-.735.2-.735.59 0 .198.044.392.223.916 0 0 2.107 6.67 2.441 7.718.064.196.25.155.304-.02a2445.18 2445.18 0 002.413-8.071c.061-.216.085-.393.085-.52 0-.328-.232-.5-.76-.568-.481-.045-.701-.261-.701-.61 0-.435.248-.607.828-.607h7.543c.717 0 .956.147.956.624 0 .357-.239.616-.539.616h-.417a.49.49 0 00-.415.276c-.04.16-.06.312-.06.856v2.809c0 1.004.087 1.089.892 1.089h2.957c.433 0 .656-.07.769-.196.099-.132.099-.217.099-1.025v-2.677c0-.567 0-.695-.055-.856a.472.472 0 00-.397-.276h-.416c-.328 0-.592-.26-.592-.616 0-.477.264-.624 1.008-.624h3.957c.741 0 1.006.147 1.006.624 0 .357-.265.616-.564.616h-.442a.434.434 0 00-.37.276c-.061.16-.077.312-.077.856v9.774c0 .568.016.696.077.872.047.152.22.26.37.26h.442c.323 0 .564.284.564.608 0 .481-.24.629-1.006.629h-3.957c-.744 0-.98-.148-.98-.63 0-.323.264-.607.564-.607h.416c.148 0 .32-.108.397-.26.055-.176.055-.304.055-.872v-3.175c0-.808 0-.893-.1-1.025-.112-.127-.335-.195-.768-.195h-2.957c-.805 0-.892.084-.892 1.088v3.307c0 .568.02.696.06.872a.46.46 0 00.415.26h.417c.3 0 .524.284.524.633 0 .456-.248.604-.94.604h-3.967c-.732 0-.996-.148-.996-.63 0-.323.264-.607.564-.607h.432c.153 0 .333-.108.373-.26.068-.176.068-.288.068-.872v-9.774c0-1.11-.522-1.185-.904-1.132-.384.053-.608.297-.845 1.065l-3.47 11.17c-.312 1.064-.608 1.369-1.259 1.369-.648 0-.978-.281-1.24-1.086l-1.853-5.537c-.06-.177-.245-.182-.296-.011-.05.17-1.978 5.548-1.978 5.548-.209.52-.264.672-.44.85a1.324 1.324 0 01-.74.236c-.633 0-.941-.262-1.241-1.086L11.363 21.34zm28.891-6.588c.728-2.703 3.357-5.431 6.263-4.6 2.463.706 2.289 2.742 4.08 3.379.643.228.592.875.03.982-.944.18-2.222-.508-3.175-1.372-1.117-1.014-2.928-.968-3.814-.294-.387.295-.188.575.166.498.82-.18 2.21-.224 3.279.976 1.05 1.179 3.01 2.232 4.744 1.1.475-.308.786-.949 1.27-.811.517.146.527.9-.153 1.777-1.602 2.068-3.247 1.82-5.008 3.547-1.76 1.725-2.117 3.688-2.117 6.18 0 3.863 1.523 6.204 4.09 6.204 2.502 0 4.07-2.432 4.07-6.25 0-3.15-.747-5.185-2.616-5.903-.905-.338-.75-1.222.416-1.36.962-.112 1.902.214 2.936.977 1.782 1.313 2.673 3.4 2.673 6.195 0 4.863-2.932 7.977-7.545 7.977-4.501 0-7.433-3.114-7.433-7.863 0-3.056 1.15-5.411 3.136-6.741.831-.62 2.237-1.334 3.613-1.802.285-.096.283-.602-.222-.503-.605.118-1.711.205-2.628-.162-2.052-.812-2.65-2.261-5.067-1.222-.73.314-1.197-.13-.988-.91zm18.374 4.303h4.022c.784 0 1.049.156 1.049.637a.59.59 0 01-.576.607h-.473c-.2 0-.396.108-.457.284-.064.148-.064.28-.064.849v9.14c0 .956.04 1.18.297 1.329.224.152.557.193 1.431.193h1.225c.777 0 1.326-.242 1.595-.808.122-.257.16-.354.187-.397.145-.284.376-.412.588-.412.396 0 .592.302.476.86l-.335 1.692c-.088.398-.336.545-.775.545h-8.19c-.724 0-.964-.143-.964-.628 0-.32.24-.585.544-.585h.42c.144 0 .32-.133.364-.28.064-.16.084-.265.084-.808v-9.841c0-.588-.02-.676-.084-.849a.392.392 0 00-.364-.284h-.42a.591.591 0 01-.592-.607c0-.481.263-.637 1.012-.637zM45.044-8.988C20.262-8.988.17 11.102.17 35.885c0 24.782 20.09 44.87 44.873 44.87 24.783 0 44.872-20.088 44.872-44.87 0-24.783-20.09-44.873-44.872-44.873z"/></g></svg>